<svg width="72" height="72" viewBox="0 0 72 72" fill="none" xmlns="http://www.w3.org/2000/svg">
<path d="M35.9857 6.48571C45.6 6.48571 46.7286 6.52857 50.5286 6.7C54.0429 6.85714 55.9429 7.44286 57.2143 7.94286C58.9 8.6 60.1 9.37143 61.3571 10.6286C62.6143 11.8857 63.4 13.0857 64.0429 14.7714C64.5286 16.0429 65.1286 17.9429 65.2857 21.4571C65.4571 25.2571 65.5 26.3857 65.5 36C65.5 45.6143 65.4571 46.7429 65.2857 50.5429C65.1286 54.0571 64.5429 55.9571 64.0429 57.2286C63.3857 58.9143 62.6143 60.1143 61.3571 61.3714C60.1 62.6286 58.9 63.4143 57.2143 64.0571C55.9429 64.5429 54.0429 65.1429 50.5286 65.3C46.7286 65.4714 45.6 65.5143 35.9857 65.5143C26.3714 65.5143 25.2429 65.4714 21.4429 65.3C17.9286 65.1429 16.0286 64.5571 14.7571 64.0571C13.0714 63.4 11.8714 62.6286 10.6143 61.3714C9.35714 60.1143 8.57143 58.9143 7.92857 57.2286C7.44286 55.9571 6.84286 54.0571 6.68571 50.5429C6.51429 46.7429 6.47143 45.6143 6.47143 36C6.47143 26.3857 6.51429 25.2571 6.68571 21.4571C6.84286 17.9429 7.42857 16.0429 7.92857 14.7714C8.58571 13.0857 9.35714 11.8857 10.6143 10.6286C11.8714 9.37143 13.0714 8.58571 14.7571 7.94286C16.0286 7.45714 17.9286 6.85714 21.4429 6.7C25.2429 6.51429 26.3714 6.48571 35.9857 6.48571ZM35.9857 0C26.2143 0 24.9857 0.0428571 21.1429 0.214286C17.3143 0.385714 14.7 1 12.4143 1.88571C10.0429 2.8 8.04286 4.04286 6.04286 6.04286C4.04286 8.04286 2.81429 10.0571 1.88571 12.4143C1 14.7 0.385714 17.3143 0.214286 21.1571C0.0428571 24.9857 0 26.2143 0 35.9857C0 45.7571 0.0428571 46.9857 0.214286 50.8286C0.385714 54.6571 1 57.2714 1.88571 59.5714C2.8 61.9429 4.04286 63.9429 6.04286 65.9429C8.04286 67.9429 10.0571 69.1714 12.4143 70.1C14.7 70.9857 17.3143 71.6 21.1571 71.7714C25 71.9429 26.2143 71.9857 36 71.9857C45.7857 71.9857 47 71.9429 50.8429 71.7714C54.6714 71.6 57.2857 70.9857 59.5857 70.1C61.9571 69.1857 63.9571 67.9429 65.9571 65.9429C67.9571 63.9429 69.1857 61.9286 70.1143 59.5714C71 57.2857 71.6143 54.6714 71.7857 50.8286C71.9571 46.9857 72 45.7714 72 35.9857C72 26.2 71.9571 24.9857 71.7857 21.1429C71.6143 17.3143 71 14.7 70.1143 12.4C69.2 10.0286 67.9571 8.02857 65.9571 6.02857C63.9571 4.02857 61.9429 2.8 59.5857 1.87143C57.3 0.985714 54.6857 0.371429 50.8429 0.2C46.9857 0.0428572 45.7571 0 35.9857 0ZM35.9857 17.5C25.7857 17.5 17.5 25.7714 17.5 35.9857C17.5 46.2 25.7857 54.4714 35.9857 54.4714C46.1857 54.4714 54.4714 46.1857 54.4714 35.9857C54.4714 25.7857 46.1857 17.5 35.9857 17.5ZM35.9857 47.9857C29.3571 47.9857 23.9857 42.6143 23.9857 35.9857C23.9857 29.3571 29.3571 23.9857 35.9857 23.9857C42.6143 23.9857 47.9857 29.3571 47.9857 35.9857C47.9857 42.6143 42.6143 47.9857 35.9857 47.9857ZM55.2 12.4571C52.8143 12.4571 50.8857 14.3857 50.8857 16.7714C50.8857 19.1571 52.8143 21.0857 55.2 21.0857C57.5857 21.0857 59.5143 19.1571 59.5143 16.7714C59.5143 14.3857 57.5857 12.4571 55.2 12.4571Z" fill="#FFFDF7"/>
</svg>
