<svg width="72" height="72" viewBox="0 0 72 72" fill="none" xmlns="http://www.w3.org/2000/svg">
<path d="M72 0H0V72H72V0Z" fill="#FFFDF7"/>
<path d="M16.3545 29.1094H24.7189V55.9913H16.3545V29.1094ZM20.5395 15.75C21.4975 15.7506 22.4339 16.0352 23.2302 16.5678C24.0265 17.1005 24.647 17.8573 25.0132 18.7426C25.3795 19.6278 25.475 20.6018 25.2878 21.5414C25.1005 22.4809 24.6389 23.3439 23.9613 24.0211C23.2836 24.6984 22.4204 25.1595 21.4808 25.3462C20.5411 25.5329 19.5672 25.4368 18.6821 25.07C17.797 24.7033 17.0406 24.0823 16.5084 23.2857C15.9762 22.4891 15.6921 21.5526 15.6921 20.5945C15.6925 19.3096 16.2032 18.0773 17.112 17.1688C18.0207 16.2604 19.2531 15.75 20.5381 15.75" fill="#2E2E2E"/>
<path d="M29.9531 29.1094H37.9688V32.7854H38.0827C39.1964 30.676 41.9231 28.4429 45.9872 28.4429C54.4472 28.4429 56.0109 34.0102 56.0109 41.2496V55.9913H47.6564V42.9132C47.6564 39.7955 47.603 35.7849 43.3153 35.7849C38.9686 35.7849 38.3048 39.1824 38.3048 42.6896V55.9857H29.9531V29.1094Z" fill="#2E2E2E"/>
</svg>
