<svg width="72" height="72" viewBox="0 0 72 72" fill="none" xmlns="http://www.w3.org/2000/svg">
<path d="M26.0859 15.0007C25.59 15.0042 25.1118 15.1851 24.7378 15.5106C24.3638 15.8362 24.1187 16.2848 24.0468 16.7754L18.0154 55.5471C17.9861 55.7255 17.9959 55.9081 18.0439 56.0823C18.092 56.2566 18.1772 56.4184 18.2937 56.5565C18.4102 56.6947 18.5553 56.806 18.7189 56.8828C18.8826 56.9595 19.0609 56.9999 19.2416 57.0012H26.3573C26.8548 56.9991 27.335 56.8188 27.7109 56.493C28.0869 56.1671 28.3335 55.7173 28.4062 55.2251L30.0332 44.7668C30.1043 44.2776 30.3478 43.83 30.7199 43.5045C31.092 43.1791 31.5681 42.9974 32.0624 42.9921H36.7874C46.6031 42.9921 52.266 38.1729 53.7454 28.6231C54.4106 24.4451 53.7721 21.1615 51.8427 18.8609C49.7334 16.3367 45.9716 15.0007 40.9851 15.0007H26.0859ZM42.7049 29.1617C41.8907 34.587 37.807 34.587 33.854 34.587H31.604L33.1832 24.462C33.2263 24.1673 33.3739 23.8978 33.5989 23.7027C33.824 23.5076 34.1116 23.3998 34.4095 23.3989H35.4374C38.1262 23.3989 40.6673 23.3989 41.9765 24.9542C42.7626 25.8753 43.0031 27.2562 42.7035 29.1617H42.7049Z" fill="#FFFDF7"/>
<path d="M69.0005 0.717187C69.6056 0.717932 70.1856 0.958631 70.6135 1.38649C71.0414 1.81435 71.2821 2.39444 71.2828 2.99953V69.0005C71.2821 69.6056 71.0414 70.1856 70.6135 70.6135C70.1856 71.0414 69.6056 71.2821 69.0005 71.2828H2.99953C2.39444 71.2821 1.81435 71.0414 1.38649 70.6135C0.958631 70.1856 0.717932 69.6056 0.717187 69.0005V2.99953C0.717932 2.39444 0.958631 1.81435 1.38649 1.38649C1.81435 0.958631 2.39444 0.717932 2.99953 0.717187H69.0005ZM69.0005 0H2.99953C2.20401 0 1.44106 0.316021 0.878542 0.878542C0.316021 1.44106 0 2.20401 0 2.99953L0 69.0005C0 69.796 0.316021 70.5589 0.878542 71.1215C1.44106 71.684 2.20401 72 2.99953 72H69.0005C69.796 72 70.5589 71.684 71.1215 71.1215C71.684 70.5589 72 69.796 72 69.0005V2.99953C72 2.20401 71.684 1.44106 71.1215 0.878542C70.5589 0.316021 69.796 0 69.0005 0V0Z" fill="#FFFDF7"/>
</svg>
