<svg width="72" height="72" viewBox="0 0 72 72" fill="none" xmlns="http://www.w3.org/2000/svg">
<path d="M72 0H0V72H72V0Z" fill="#FFFDF7"/>
<path d="M36.249 54.5301C36.1477 54.5301 36.0479 54.5301 35.9481 54.5231C35.8848 54.5231 35.8173 54.5301 35.7512 54.5301C33.4126 54.5301 31.9107 53.4684 30.4595 52.4432C29.4568 51.7401 28.5104 51.0665 27.3967 50.8809C26.8651 50.7902 26.3271 50.7432 25.7879 50.7403C25.0383 50.7481 24.2915 50.8324 23.559 50.992C23.286 51.0558 23.0079 51.0958 22.7279 51.1115C22.5015 51.1115 22.2568 51.0637 22.1499 50.6995C22.0571 50.3845 21.991 50.0793 21.9263 49.784C21.7604 49.0246 21.6451 48.5578 21.3245 48.5086C17.6148 47.9362 16.5531 47.1543 16.3168 46.6003C16.284 46.525 16.2645 46.4446 16.2592 46.3626C16.2542 46.2599 16.2869 46.159 16.3511 46.0787C16.4153 45.9984 16.5066 45.9444 16.6079 45.9267C22.3103 44.9873 24.8682 39.1584 24.9751 38.9109L24.9835 38.8912C25.3323 38.1881 25.4054 37.5693 25.1874 37.0631C24.7951 36.1406 23.5196 35.7356 22.6745 35.467C22.4678 35.4023 22.2723 35.339 22.112 35.2785C20.4245 34.612 20.2838 33.9271 20.3513 33.5798C20.4638 32.985 21.2584 32.5715 21.8982 32.5715C22.0569 32.5683 22.2144 32.6 22.3595 32.6643C23.1174 33.0187 23.8009 33.1987 24.3915 33.1987C25.2057 33.1987 25.5615 32.857 25.6051 32.812C25.584 32.4253 25.5587 32.0231 25.532 31.6068C25.3618 28.9096 25.1509 25.56 26.0045 23.6475C28.561 17.9142 33.9821 17.4698 35.5838 17.4698L36.287 17.4628H36.3812C37.9857 17.4628 43.4124 17.9085 45.9774 23.6503C46.831 25.5642 46.6201 28.9167 46.4499 31.611L46.4429 31.7292C46.419 32.1032 46.3965 32.4689 46.3782 32.8176C46.419 32.8598 46.7467 33.1734 47.4849 33.2015C48.1522 33.1526 48.8032 32.972 49.4003 32.67C49.588 32.5891 49.7907 32.5488 49.9951 32.5518C50.2297 32.5506 50.4623 32.595 50.6799 32.6826H50.6926C51.2649 32.8851 51.6404 33.2873 51.6488 33.7064C51.6559 34.1015 51.3549 34.6907 49.8756 35.28C49.7223 35.3404 49.5268 35.4023 49.3131 35.4684C48.4693 35.737 47.191 36.142 46.8001 37.0645C46.5863 37.5679 46.6595 38.1811 47.004 38.8926C47.0077 38.8994 47.011 38.9065 47.0138 38.9137C47.1193 39.1612 49.6759 44.9887 55.381 45.9281C55.4823 45.9458 55.5736 45.9998 55.6378 46.0801C55.702 46.1604 55.7347 46.2613 55.7298 46.364C55.7247 46.4465 55.7052 46.5274 55.6721 46.6031C55.4359 47.1529 54.3756 47.9348 50.6645 48.5071C50.3607 48.5536 50.2426 48.9487 50.0626 49.7728C49.9965 50.0737 49.929 50.3704 49.839 50.6812C49.8149 50.8012 49.7473 50.9081 49.6492 50.9813C49.551 51.0545 49.4293 51.0888 49.3074 51.0778H49.261C48.9814 51.0681 48.7033 51.0332 48.4299 50.9737C47.6969 50.8197 46.9501 50.7406 46.201 50.7375C45.6614 50.7404 45.1229 50.7874 44.5909 50.8781C43.4771 51.0637 42.5321 51.7317 41.5323 52.439C40.0909 53.4684 38.589 54.5301 36.249 54.5301Z" fill="#2E2E2E"/>
</svg>
